<svg width="198" height="306" viewBox="0 0 198 306" fill="none" xmlns="http://www.w3.org/2000/svg">
<path d="M197.228 94C197.228 126.249 189.057 179.193 173.234 224.065C165.322 246.502 155.509 266.886 143.872 281.652C132.232 296.423 118.827 305.5 103.728 305.5C86.9438 305.5 72.1411 296.4 59.354 281.634C46.5663 266.869 35.8394 246.486 27.2208 224.052C9.98307 179.184 1.22815 126.244 1.22815 94C1.22815 61.7797 9.96926 38.4384 27.0872 23.1413C44.2163 7.83422 69.823 0.5 103.728 0.5C137.635 0.5 160.972 7.83495 175.844 23.1172C190.719 38.4023 197.228 61.7426 197.228 94Z" fill="#FF0000" stroke="black"/>
<ellipse cx="100" cy="107" rx="45" ry="41" fill="white"/>
</svg>
